<svg width="27" height="26" viewBox="0 0 27 26" fill="none" xmlns="http://www.w3.org/2000/svg">
<path d="M22.7019 20.0395H21.4431V22.2982C21.4431 23.6558 19.8272 24.3633 18.8296 23.4425L15.143 20.0395H7.50892C6.26628 20.0395 5.25892 19.0321 5.25892 17.7895V6.10526C5.25892 4.86262 6.26628 3.85526 7.50892 3.85526H22.7019C23.9445 3.85526 24.9519 4.86262 24.9519 6.10526V17.7895C24.9519 19.0321 23.9445 20.0395 22.7019 20.0395Z" fill="white" stroke="#8D98A3" stroke-width="2.5"/>
<path d="M4 17.9342H5.25877V20.193C5.25877 21.5505 6.87474 22.2581 7.87227 21.3373L11.5589 17.9342H19.193C20.4356 17.9342 21.443 16.9268 21.443 15.6842V4C21.443 2.75736 20.4356 1.75 19.193 1.75H4C2.75736 1.75 1.75 2.75736 1.75 4V15.6842C1.75 16.9268 2.75736 17.9342 4 17.9342Z" fill="white" stroke="#8D98A3" stroke-width="2.5"/>
<path d="M5.10522 7.5614H14.5789" stroke="#8D98A3" stroke-width="1.5"/>
<path d="M5.10522 9.66667H17.7368" stroke="#8D98A3" stroke-width="1.5"/>
<path d="M5.10522 11.7719H12.1228" stroke="#8D98A3" stroke-width="1.5"/>
</svg>
