<svg width="27" height="25" viewBox="0 0 27 25" fill="none" xmlns="http://www.w3.org/2000/svg">
<path d="M22.1472 22.129V24.636C22.1472 24.9527 21.7702 25.1177 21.5376 24.903L17.226 20.923C16.9228 20.6432 16.5253 20.4878 16.1127 20.4878H7.61026C6.70381 20.4878 5.96899 19.753 5.96899 18.8465V5.95085C5.96899 5.04441 6.70381 4.30959 7.61026 4.30959H24.6542C25.5606 4.30959 26.2954 5.04441 26.2954 5.95085V18.8465C26.2954 19.753 25.5606 20.4878 24.6542 20.4878H23.7885C22.882 20.4878 22.1472 21.2226 22.1472 22.129Z" fill="#3F3177"/>
<path d="M5.46881 18.783V21.1694C5.46881 21.9491 6.38948 22.2551 6.90848 21.799L11.22 18.0106C11.4298 17.8263 11.7091 17.7206 12.0033 17.7206H20.5057C21.6648 17.7206 22.647 16.8203 22.647 15.6583V3.38295C22.647 2.22102 21.6648 1.32063 20.5057 1.32063H3.46182C2.30275 1.32063 1.32056 2.22102 1.32056 3.38295V15.6583C1.32056 16.8203 2.30275 17.7206 3.46182 17.7206H4.32755C4.98136 17.7206 5.46881 18.2192 5.46881 18.783Z" fill="#3F3177" stroke="white"/>
<path fill-rule="evenodd" clip-rule="evenodd" d="M15.5099 7.82884H4.30957V6.59789H15.5099V7.82884Z" fill="white"/>
<path fill-rule="evenodd" clip-rule="evenodd" d="M19.2433 10.3178H4.30957V9.08684H19.2433V10.3178Z" fill="white"/>
<path fill-rule="evenodd" clip-rule="evenodd" d="M12.6061 12.8067H4.30957V11.5758H12.6061V12.8067Z" fill="white"/>
</svg>
