<svg width="24" height="24" viewBox="0 0 24 24" fill="none" xmlns="http://www.w3.org/2000/svg">
<path d="M14.1231 12.0003L23.5612 2.56215C24.1476 1.97628 24.1476 1.02566 23.5612 0.439784C22.9748 -0.146595 22.0252 -0.146595 21.4388 0.439784L12.0008 9.87788L2.56216 0.439784C1.97578 -0.146595 1.02616 -0.146595 0.439784 0.439784C-0.146595 1.02566 -0.146595 1.97628 0.439784 2.56215L9.87838 12.0003L0.439784 21.4383C-0.146595 22.0242 -0.146595 22.9748 0.439784 23.5607C0.732973 23.8534 1.11722 24 1.50097 24C1.88472 24 2.26897 23.8534 2.56216 23.5602L12.0008 14.1221L21.4388 23.5602C21.732 23.8534 22.1163 24 22.5 24C22.8838 24 23.268 23.8534 23.5612 23.5602C24.1476 22.9743 24.1476 22.0237 23.5612 21.4378L14.1231 12.0003Z" fill="white"/>
</svg>
