<svg width="20" height="15" viewBox="0 0 20 15" fill="none" xmlns="http://www.w3.org/2000/svg">
<path fill-rule="evenodd" clip-rule="evenodd" d="M3.53939 2.07685H14.3079C14.7363 2.07685 15.1471 2.24703 15.45 2.54995C15.753 2.85288 15.9232 3.26373 15.9232 3.69212V9.07637C15.9232 9.50477 15.753 9.91562 15.45 10.2185C15.1471 10.5215 14.7363 10.6916 14.3079 10.6916H8.92363C8.85288 10.6915 8.78279 10.7053 8.71738 10.7323C8.65197 10.7593 8.59252 10.7989 8.54243 10.8489L6.23151 13.1609V11.2301C6.23151 11.0873 6.17479 10.9503 6.07381 10.8493C5.97284 10.7484 5.83589 10.6916 5.69309 10.6916H3.53939C3.11099 10.6916 2.70014 10.5215 2.39722 10.2185C2.0943 9.91562 1.92412 9.50477 1.92412 9.07637V3.69212C1.92412 3.26373 2.0943 2.85288 2.39722 2.54995C2.70014 2.24703 3.11099 2.07685 3.53939 2.07685ZM14.3079 1H3.53939C2.82539 1 2.14064 1.28364 1.63577 1.78851C1.1309 2.29338 0.847269 2.97813 0.847269 3.69212V9.07637C0.847269 9.4299 0.916903 9.77998 1.05219 10.1066C1.18748 10.4332 1.38579 10.73 1.63577 10.98C1.88576 11.23 2.18254 11.4283 2.50916 11.5636C2.83578 11.6989 3.18585 11.7685 3.53939 11.7685H5.15466V14.4606C5.15447 14.5672 5.18595 14.6715 5.2451 14.7603C5.30425 14.849 5.38841 14.9181 5.48691 14.959C5.58541 14.9998 5.69382 15.0105 5.79839 14.9896C5.90296 14.9687 5.99899 14.9173 6.07429 14.8418L9.14654 11.7685H14.3079C15.0219 11.7685 15.7066 11.4849 16.2115 10.98C16.7164 10.4751 17 9.79036 17 9.07637V3.69212C17 2.97813 16.7164 2.29338 16.2115 1.78851C15.7066 1.28364 15.0219 1 14.3079 1Z" fill="#8D98A3"/>
</svg>
