<svg width="22" height="23" viewBox="0 0 22 23" fill="none" xmlns="http://www.w3.org/2000/svg">
<path d="M7.23823 0.981876C7.39054 1.12822 7.49546 1.31687 7.53945 1.52346C7.58343 1.73005 7.56445 1.94508 7.48496 2.14077C6.86552 3.68299 6.64385 5.35623 6.84035 7.00654C7.48466 12.4977 12.4829 16.419 18.0001 15.7716C18.7198 15.6872 19.4115 15.5299 20.068 15.3075C20.2691 15.2386 20.4861 15.2305 20.6918 15.2841C20.8975 15.3378 21.0829 15.4509 21.2248 15.6092C21.3742 15.7737 21.4651 15.9829 21.4833 16.2043C21.5015 16.4258 21.446 16.647 21.3255 16.8337C20.4088 18.2751 19.182 19.4937 17.7345 20.4008C16.287 21.3078 14.6554 21.8804 12.9585 22.0767C6.66294 22.8154 0.968555 18.3418 0.235314 12.0927C-0.31654 7.38943 2.09707 3.01662 6.007 0.824536C6.20161 0.713973 6.42683 0.66954 6.64885 0.697912C6.87086 0.726283 7.07768 0.825928 7.23823 0.981876Z" fill="#D0D1CF"/>
</svg>
