<svg width="22" height="22" viewBox="0 0 22 22" fill="none" xmlns="http://www.w3.org/2000/svg">
<path d="M17 11C17 14.3137 14.3137 17 11 17C7.68629 17 5 14.3137 5 11C5 7.68629 7.68629 5 11 5C14.3137 5 17 7.68629 17 11Z" fill="#F7F8FC"/>
<path d="M10 1C10 0.447715 10.4477 0 11 0C11.5523 0 12 0.447715 12 1V3C12 3.55228 11.5523 4 11 4C10.4477 4 10 3.55228 10 3V1Z" fill="#F7F8FC"/>
<path d="M1 12C0.447715 12 0 11.5523 0 11C0 10.4477 0.447715 10 1 10H3C3.55228 10 4 10.4477 4 11C4 11.5523 3.55228 12 3 12H1Z" fill="#F7F8FC"/>
<path d="M19 12C18.4477 12 18 11.5523 18 11C18 10.4477 18.4477 10 19 10H21C21.5523 10 22 10.4477 22 11C22 11.5523 21.5523 12 21 12H19Z" fill="#F7F8FC"/>
<path d="M2.70711 4.12132C2.31658 3.7308 2.31658 3.09763 2.70711 2.70711C3.09763 2.31658 3.7308 2.31658 4.12132 2.70711L5.53553 4.12132C5.92606 4.51185 5.92606 5.14501 5.53553 5.53554C5.14501 5.92606 4.51184 5.92606 4.12132 5.53554L2.70711 4.12132Z" fill="#F7F8FC"/>
<path d="M16.7071 18.1213C16.3166 17.7308 16.3166 17.0976 16.7071 16.7071C17.0976 16.3166 17.7308 16.3166 18.1213 16.7071L19.5355 18.1213C19.9261 18.5118 19.9261 19.145 19.5355 19.5355C19.145 19.9261 18.5118 19.9261 18.1213 19.5355L16.7071 18.1213Z" fill="#F7F8FC"/>
<path d="M18.1215 2.70711C18.512 2.31658 19.1452 2.31658 19.5357 2.70711C19.9262 3.09763 19.9262 3.7308 19.5357 4.12132L18.1215 5.53553C17.731 5.92606 17.0978 5.92606 16.7073 5.53553C16.3168 5.14501 16.3168 4.51184 16.7073 4.12132L18.1215 2.70711Z" fill="#F7F8FC"/>
<path d="M4.12151 16.7071C4.51203 16.3166 5.1452 16.3166 5.53572 16.7071C5.92624 17.0976 5.92624 17.7308 5.53572 18.1213L4.12151 19.5355C3.73098 19.9261 3.09782 19.9261 2.70729 19.5355C2.31677 19.145 2.31677 18.5118 2.70729 18.1213L4.12151 16.7071Z" fill="#F7F8FC"/>
<path d="M10 19C10 18.4477 10.4477 18 11 18C11.5523 18 12 18.4477 12 19V21C12 21.5523 11.5523 22 11 22C10.4477 22 10 21.5523 10 21V19Z" fill="#F7F8FC"/>
</svg>
