<svg width="80" height="79" viewBox="0 0 80 79" fill="none" xmlns="http://www.w3.org/2000/svg">
<g filter="url(#filter0_d_1976_14631)">
<g filter="url(#filter1_d_1976_14631)">
<circle cx="39.5979" cy="35.598" r="28" transform="rotate(45 39.5979 35.598)" fill="#4EFFBB"/>
</g>
<path fill-rule="evenodd" clip-rule="evenodd" d="M54.9564 36.2102L54.9233 36.2799L54.6566 36.7321C52.5679 40.1766 48.8327 42.5325 44.5151 42.666C43.8 42.6881 43.0973 42.6476 42.4116 42.5509L37.588 47.6825C37.469 47.8091 37.3101 47.8754 37.1492 47.8804C36.9884 47.8854 36.8254 47.829 36.6988 47.71C36.4459 47.472 36.4336 47.074 36.6714 46.8209L40.9626 42.256C37.9624 41.4531 35.3992 39.5386 33.76 36.97C33.7306 36.9333 33.705 36.8935 33.6846 36.8509L33.4693 36.4916C33.3298 36.2493 33.1983 36.0018 33.0751 35.7495L27.0601 42.1481C26.9411 42.2746 26.7822 42.341 26.6213 42.346C26.4605 42.351 26.2978 42.2945 26.1712 42.1756C25.9181 41.9376 25.9058 41.5396 26.1437 41.2864L32.5426 34.4793C32.2763 33.7288 32.0807 32.9444 31.9642 32.1335L31.9059 31.6677C31.8739 31.3664 31.8527 31.0618 31.8432 30.7542C31.748 27.6762 32.7983 24.8239 34.6078 22.607C34.6366 22.5619 34.6712 22.5208 34.7104 22.4839C35.8984 21.0666 37.4005 19.9181 39.113 19.1494L39.1665 19.1224L39.751 18.884C40.999 18.4065 42.346 18.1258 43.755 18.0823C45.1988 18.0376 46.5924 18.2457 47.8945 18.6651L47.9463 18.6792L48.5423 18.8933C50.1612 19.5174 51.6187 20.4755 52.8281 21.6846L52.89 21.7394L52.944 21.8017C55.0143 23.9274 56.3282 26.8015 56.4269 29.9941C56.4418 30.4776 56.4276 30.9553 56.3876 31.426L56.3239 32.0084C56.1238 33.5083 55.6512 34.9266 54.9564 36.2102ZM47.1753 33.0307L49.5181 36.4031L53.9467 35.4288C54.5497 34.2633 54.9505 32.9793 55.104 31.6247L51.7885 28.4241L48.2513 29.334L47.1753 33.0307ZM41.2649 33.2134L39.1358 36.7224L34.641 36.0031C33.9652 34.8676 33.487 33.5994 33.2549 32.245L36.3722 28.8998L39.9625 29.5903L41.2649 33.2134ZM35.4712 28.0215L34.7946 24.495C33.6838 26.254 33.058 28.3433 33.0975 30.5687L35.4712 28.0215ZM42.3953 32.6404L41.1793 29.2575L44.0208 27.0559L46.9929 29.078L45.9882 32.5294L42.3953 32.6404ZM52.6246 27.4827L55.1656 29.9357C55.0731 27.6029 54.2588 25.4633 52.9442 23.7262L52.6246 27.4827ZM51.7924 22.4294L51.3838 27.2296L47.8664 28.1342L44.6387 25.9384L44.5335 22.5354L47.8696 19.9847C49.3462 20.5176 50.68 21.3578 51.7924 22.4294ZM43.8335 21.4871L46.355 19.5592C45.5296 19.3895 44.6719 19.3123 43.7936 19.3395C42.7898 19.3705 41.8214 19.5361 40.9042 19.8172L43.8335 21.4871ZM39.3956 20.4045L43.2541 22.6044L43.3584 25.978L40.2728 28.369L36.6867 27.6796L35.8135 23.1284C36.8021 21.9938 38.0192 21.0613 39.3956 20.4045ZM39.0703 37.986L35.6584 37.4397L35.9796 37.8074C37.2958 39.2494 38.9866 40.3398 40.8903 40.9268L39.0703 37.986ZM42.6054 41.3079L40.1914 37.4072L42.3187 33.9012L46.1659 33.7823L48.5057 37.1501L46.3377 41.1922C45.734 41.3148 45.1122 41.3889 44.4762 41.4085C43.9993 41.4235 43.5285 41.4072 43.0656 41.3623L42.6054 41.3079ZM34.8559 40.9221C34.6028 40.6844 34.2048 40.6967 33.9668 40.9496L25.7557 49.685L25.6782 49.7861C25.5246 50.0351 25.5617 50.3659 25.7832 50.5741C25.9097 50.6928 26.0725 50.7492 26.2333 50.7443C26.3941 50.7393 26.5531 50.6729 26.672 50.5464L34.8834 41.8113L34.9609 41.7101C35.1143 41.4611 35.0772 41.1304 34.8559 40.9221ZM35.2416 48.6109C35.4071 48.6057 35.5712 48.668 35.6917 48.7813C35.8124 48.8945 35.8845 49.0545 35.8896 49.2205C35.8947 49.3858 35.8325 49.5497 35.7192 49.6702C35.6059 49.7914 35.446 49.8634 35.2805 49.8686C35.1152 49.8737 34.9511 49.8116 34.8306 49.6976C34.7098 49.5841 34.6375 49.4246 34.6324 49.2594C34.6273 49.0934 34.6898 48.9293 34.8031 48.8088C34.9163 48.6883 35.0763 48.616 35.2416 48.6109ZM48.0257 40.7062C50.0378 39.9467 51.7658 38.6172 53.0187 36.9206L49.6596 37.6599L48.0257 40.7062Z" fill="#313132"/>
<path d="M54.9233 36.2799L55.2777 36.4889L55.287 36.473L55.2949 36.4564L54.9233 36.2799ZM54.9564 36.2102L54.5945 36.0143L54.5894 36.0239L54.5847 36.0337L54.9564 36.2102ZM54.6566 36.7321L55.0085 36.9454L55.011 36.9411L54.6566 36.7321ZM44.5151 42.666L44.5278 43.0772L44.5278 43.0772L44.5151 42.666ZM42.4116 42.5509L42.469 42.1435L42.2578 42.1137L42.1118 42.2691L42.4116 42.5509ZM37.588 47.6825L37.8878 47.9643L37.8878 47.9643L37.588 47.6825ZM36.6988 47.71L36.4169 48.0096L36.417 48.0098L36.6988 47.71ZM36.6714 46.8209L36.3716 46.5391L36.3714 46.5392L36.6714 46.8209ZM40.9626 42.256L41.2624 42.5378L41.7338 42.0364L41.069 41.8585L40.9626 42.256ZM33.76 36.97L34.1068 36.7486L34.0949 36.73L34.0811 36.7127L33.76 36.97ZM33.6846 36.8509L34.0554 36.6727L34.0472 36.6557L34.0375 36.6395L33.6846 36.8509ZM33.4693 36.4916L33.1127 36.6969L33.1164 36.703L33.4693 36.4916ZM33.0751 35.7495L33.4449 35.569L33.1835 35.0335L32.7753 35.4677L33.0751 35.7495ZM27.0601 42.1481L26.7603 41.8663L26.7603 41.8663L27.0601 42.1481ZM26.1437 41.2864L26.4435 41.5682L26.1437 41.2864ZM32.5426 34.4793L32.8424 34.7611L33.0142 34.5782L32.9303 34.3417L32.5426 34.4793ZM31.9642 32.1335L31.5559 32.1846L31.557 32.192L31.9642 32.1335ZM31.9059 31.6677L31.4966 31.7111L31.4976 31.7188L31.9059 31.6677ZM31.8432 30.7542L31.4319 30.7669L31.4319 30.7669L31.8432 30.7542ZM34.6078 22.607L34.9265 22.8672L34.9416 22.8487L34.9545 22.8286L34.6078 22.607ZM34.7104 22.4839L34.9923 22.7836L35.01 22.7669L35.0257 22.7482L34.7104 22.4839ZM39.113 19.1494L39.2814 19.5248L39.2901 19.5209L39.2985 19.5167L39.113 19.1494ZM39.1665 19.1224L39.0111 18.7414L38.9958 18.7477L38.981 18.7551L39.1665 19.1224ZM39.751 18.884L39.6039 18.4996L39.5956 18.503L39.751 18.884ZM47.8945 18.6651L47.7684 19.0567L47.7773 19.0596L47.7863 19.062L47.8945 18.6651ZM47.9463 18.6792L48.0854 18.292L48.0702 18.2865L48.0546 18.2823L47.9463 18.6792ZM48.5423 18.8933L48.6903 18.5093L48.6814 18.5061L48.5423 18.8933ZM52.8281 21.6846L52.5372 21.9756L52.546 21.9844L52.5553 21.9926L52.8281 21.6846ZM52.89 21.7394L53.2007 21.4698L53.183 21.4494L53.1628 21.4314L52.89 21.7394ZM52.944 21.8017L52.6333 22.0714L52.641 22.0803L52.6493 22.0888L52.944 21.8017ZM56.4269 29.9941L56.8381 29.9814L56.4269 29.9941ZM56.3876 31.426L56.7967 31.4707L56.7976 31.4608L56.3876 31.426ZM56.3239 32.0084L56.7319 32.0629L56.7329 32.0531L56.3239 32.0084ZM49.5181 36.4031L49.1802 36.6378L49.3374 36.8641L49.6065 36.8049L49.5181 36.4031ZM47.1753 33.0307L46.7802 32.9157L46.7253 33.1042L46.8374 33.2654L47.1753 33.0307ZM53.9467 35.4288L54.0351 35.8306L54.2235 35.7892L54.3122 35.6179L53.9467 35.4288ZM55.104 31.6247L55.5128 31.671L55.5356 31.4695L55.3897 31.3287L55.104 31.6247ZM51.7885 28.4241L52.0742 28.1281L51.9087 27.9684L51.686 28.0257L51.7885 28.4241ZM48.2513 29.334L48.1488 28.9355L47.9218 28.9939L47.8562 29.219L48.2513 29.334ZM39.1358 36.7224L39.0707 37.1287L39.344 37.1724L39.4875 36.9359L39.1358 36.7224ZM41.2649 33.2134L41.6166 33.4269L41.7185 33.259L41.6521 33.0743L41.2649 33.2134ZM34.641 36.0031L34.2875 36.2136L34.3859 36.379L34.576 36.4094L34.641 36.0031ZM33.2549 32.245L32.9539 31.9645L32.8149 32.1136L32.8493 32.3145L33.2549 32.245ZM36.3722 28.8998L36.4499 28.4958L36.2263 28.4528L36.0712 28.6193L36.3722 28.8998ZM39.9625 29.5903L40.3497 29.4511L40.2704 29.2305L40.0402 29.1863L39.9625 29.5903ZM34.7946 24.495L35.1987 24.4175L35.0026 23.3952L34.4468 24.2753L34.7946 24.495ZM35.4712 28.0215L35.7722 28.302L35.9146 28.1491L35.8753 27.9439L35.4712 28.0215ZM33.0975 30.5687L32.6862 30.576L32.7043 31.5942L33.3985 30.8492L33.0975 30.5687ZM41.1793 29.2575L40.9273 28.9322L40.691 29.1153L40.7921 29.3967L41.1793 29.2575ZM42.3953 32.6404L42.0081 32.7796L42.1093 33.0609L42.408 33.0517L42.3953 32.6404ZM44.0208 27.0559L44.2522 26.7157L44.0051 26.5476L43.7688 26.7307L44.0208 27.0559ZM46.9929 29.078L47.3879 29.193L47.4715 28.906L47.2243 28.7378L46.9929 29.078ZM45.9882 32.5294L46.0009 32.9406L46.2997 32.9314L46.3832 32.6444L45.9882 32.5294ZM55.1656 29.9357L54.8799 30.2318L55.6174 30.9437L55.5768 29.9194L55.1656 29.9357ZM52.6246 27.4827L52.2146 27.4479L52.1981 27.6429L52.3388 27.7788L52.6246 27.4827ZM52.9442 23.7262L53.2723 23.4779L52.6252 22.6228L52.5343 23.6913L52.9442 23.7262ZM51.3838 27.2296L51.4863 27.6281L51.7691 27.5554L51.7938 27.2645L51.3838 27.2296ZM51.7924 22.4294L52.2023 22.4643L52.219 22.269L52.0778 22.1331L51.7924 22.4294ZM47.8664 28.1342L47.635 28.4744L47.7888 28.579L47.9689 28.5327L47.8664 28.1342ZM44.6387 25.9384L44.2275 25.9511L44.234 26.1607L44.4073 26.2786L44.6387 25.9384ZM44.5335 22.5354L44.2836 22.2085L44.1157 22.3369L44.1223 22.5481L44.5335 22.5354ZM47.8696 19.9847L48.0092 19.5977L47.798 19.5215L47.6197 19.6579L47.8696 19.9847ZM46.355 19.5592L46.605 19.886L47.3219 19.3378L46.4379 19.1561L46.355 19.5592ZM43.8335 21.4871L43.6297 21.8446L43.8667 21.9797L44.0834 21.814L43.8335 21.4871ZM43.7936 19.3395L43.7809 18.9282L43.7936 19.3395ZM40.9042 19.8172L40.7837 19.4238L39.8729 19.7028L40.7004 20.1746L40.9042 19.8172ZM43.2541 22.6044L43.6654 22.5917L43.6582 22.3612L43.4579 22.247L43.2541 22.6044ZM39.3956 20.4045L39.5994 20.0471L39.4126 19.9406L39.2185 20.0332L39.3956 20.4045ZM43.3584 25.978L43.6104 26.3032L43.7761 26.1748L43.7697 25.9653L43.3584 25.978ZM40.2728 28.369L40.1951 28.7731L40.3778 28.8082L40.5248 28.6942L40.2728 28.369ZM36.6867 27.6796L36.2826 27.7572L36.3351 28.031L36.609 28.0837L36.6867 27.6796ZM35.8135 23.1284L35.5033 22.8582L35.3717 23.0092L35.4095 23.206L35.8135 23.1284ZM35.6584 37.4397L35.7235 37.0334L34.6003 36.8536L35.3485 37.7104L35.6584 37.4397ZM39.0703 37.986L39.4202 37.7695L39.3212 37.6095L39.1354 37.5798L39.0703 37.986ZM35.9796 37.8074L35.6696 38.0781L35.6757 38.0848L35.9796 37.8074ZM40.8903 40.9268L40.7691 41.32L41.8176 41.6433L41.2402 40.7103L40.8903 40.9268ZM40.1914 37.4072L39.8397 37.1938L39.7089 37.4093L39.8416 37.6237L40.1914 37.4072ZM42.6054 41.3079L42.2556 41.5244L42.36 41.6931L42.5571 41.7164L42.6054 41.3079ZM42.3187 33.9012L42.306 33.49L42.0827 33.4969L41.9669 33.6878L42.3187 33.9012ZM46.1659 33.7823L46.5038 33.5475L46.3764 33.3641L46.1532 33.371L46.1659 33.7823ZM48.5057 37.1501L48.8683 37.3446L48.9874 37.1224L48.8436 36.9154L48.5057 37.1501ZM46.3377 41.1922L46.4196 41.5954L46.609 41.557L46.7003 41.3867L46.3377 41.1922ZM44.4762 41.4085L44.4635 40.9973L44.4634 40.9973L44.4762 41.4085ZM43.0656 41.3623L43.0173 41.771L43.0259 41.7718L43.0656 41.3623ZM33.9668 40.9496L33.6672 40.6677L33.667 40.6678L33.9668 40.9496ZM34.8559 40.9221L35.1379 40.6225L35.1376 40.6222L34.8559 40.9221ZM25.7557 49.685L25.4559 49.4032L25.4417 49.4182L25.4292 49.4346L25.7557 49.685ZM25.6782 49.7861L25.3516 49.5358L25.3389 49.5523L25.328 49.5701L25.6782 49.7861ZM25.7832 50.5741L25.5014 50.8739L25.5017 50.8741L25.7832 50.5741ZM26.672 50.5464L26.3723 50.2645L26.3723 50.2646L26.672 50.5464ZM34.8834 41.8113L35.1832 42.0931L35.1974 42.0779L35.2101 42.0614L34.8834 41.8113ZM34.9609 41.7101L35.2875 41.9603L35.3002 41.9437L35.3111 41.926L34.9609 41.7101ZM35.6917 48.7813L35.4099 49.0811L35.4102 49.0814L35.6917 48.7813ZM35.2416 48.6109L35.2289 48.1996L35.2289 48.1996L35.2416 48.6109ZM35.8896 49.2205L36.3009 49.2078L36.3009 49.2078L35.8896 49.2205ZM35.7192 49.6702L35.4194 49.3884L35.4185 49.3893L35.7192 49.6702ZM35.2805 49.8686L35.2677 49.4573L35.2677 49.4573L35.2805 49.8686ZM34.8306 49.6976L35.1133 49.3987L35.1124 49.3979L34.8306 49.6976ZM53.0187 36.9206L53.3497 37.1651L54.0009 36.2832L52.9303 36.5188L53.0187 36.9206ZM48.0257 40.7062L47.6631 40.5117L47.1446 41.4786L48.171 41.0911L48.0257 40.7062ZM49.6596 37.6599L49.5712 37.258L49.3864 37.2987L49.297 37.4654L49.6596 37.6599ZM55.2949 36.4564L55.328 36.3866L54.5847 36.0337L54.5516 36.1035L55.2949 36.4564ZM55.011 36.9411L55.2777 36.4889L54.5688 36.0709L54.3022 36.5231L55.011 36.9411ZM44.5278 43.0772C48.991 42.9392 52.8508 40.5036 55.0084 36.9454L54.3048 36.5188C52.285 39.8497 48.6745 42.1257 44.5024 42.2547L44.5278 43.0772ZM42.3541 42.9583C43.0627 43.0583 43.7889 43.1001 44.5278 43.0772L44.5024 42.2547C43.8112 42.2761 43.132 42.237 42.469 42.1435L42.3541 42.9583ZM37.8878 47.9643L42.7113 42.8327L42.1118 42.2691L37.2882 47.4007L37.8878 47.9643ZM37.1619 48.2917C37.4275 48.2834 37.6911 48.1735 37.8878 47.9643L37.2882 47.4007C37.2469 47.4446 37.1926 47.4674 37.1365 47.4692L37.1619 48.2917ZM36.417 48.0098C36.6264 48.2066 36.8966 48.2999 37.1619 48.2917L37.1365 47.4692C37.0802 47.4709 37.0245 47.4514 36.9806 47.4102L36.417 48.0098ZM36.3714 46.5392C35.9783 46.9579 35.9986 47.6161 36.4169 48.0096L36.9808 47.4104C36.8933 47.328 36.889 47.1901 36.9713 47.1025L36.3714 46.5392ZM40.6629 41.9742L36.3716 46.5391L36.9711 47.1027L41.2624 42.5378L40.6629 41.9742ZM33.4132 37.1913C35.1066 39.845 37.7549 41.8235 40.8563 42.6535L41.069 41.8585C38.1699 41.0827 35.6917 39.2322 34.1068 36.7486L33.4132 37.1913ZM33.3137 37.0291C33.3488 37.1022 33.3916 37.1682 33.4389 37.2272L34.0811 36.7127C34.0696 36.6984 34.0613 36.6849 34.0554 36.6727L33.3137 37.0291ZM33.1164 36.703L33.3316 37.0623L34.0375 36.6395L33.8223 36.2802L33.1164 36.703ZM32.7054 35.9299C32.8327 36.1907 32.9686 36.4465 33.1128 36.6969L33.8259 36.2862C33.691 36.0521 33.5639 35.8128 33.4449 35.569L32.7054 35.9299ZM27.3599 42.4299L33.3749 36.0313L32.7753 35.4677L26.7603 41.8663L27.3599 42.4299ZM26.6341 42.7572C26.8996 42.749 27.1632 42.6391 27.3599 42.4299L26.7603 41.8663C26.719 41.9102 26.6648 41.933 26.6086 41.9347L26.6341 42.7572ZM25.8894 42.4753C26.0986 42.672 26.3685 42.7654 26.6341 42.7572L26.6086 41.9347C26.5525 41.9365 26.4969 41.9171 26.453 41.8758L25.8894 42.4753ZM25.8439 41.0046C25.4503 41.4233 25.4707 42.0818 25.8894 42.4753L26.453 41.8758C26.3654 41.7935 26.3612 41.6558 26.4435 41.5682L25.8439 41.0046ZM32.2428 34.1975L25.8439 41.0046L26.4435 41.5682L32.8424 34.7611L32.2428 34.1975ZM31.557 32.192C31.6774 33.0301 31.8795 33.841 32.1548 34.6168L32.9303 34.3417C32.673 33.6165 32.4841 32.8586 32.3715 32.0749L31.557 32.192ZM31.4976 31.7188L31.556 32.1846L32.3725 32.0823L32.3141 31.6165L31.4976 31.7188ZM31.4319 30.7669C31.4418 31.085 31.4637 31.3998 31.4967 31.7111L32.315 31.6243C32.2841 31.3329 32.2636 31.0385 32.2544 30.7415L31.4319 30.7669ZM34.289 22.3469C32.4194 24.6374 31.3336 27.5858 31.4319 30.7669L32.2544 30.7415C32.1624 27.7667 33.1771 25.0105 34.9265 22.8672L34.289 22.3469ZM34.4284 22.1843C34.3661 22.2429 34.3093 22.31 34.261 22.3855L34.9545 22.8286C34.9639 22.8138 34.9763 22.7986 34.9923 22.7836L34.4284 22.1843ZM38.9445 18.7741C37.1744 19.5686 35.6224 20.7555 34.3951 22.2196L35.0257 22.7482C36.1745 21.3778 37.6266 20.2676 39.2814 19.5248L38.9445 18.7741ZM38.981 18.7551L38.9274 18.7822L39.2985 19.5167L39.352 19.4896L38.981 18.7551ZM39.5956 18.503L39.0111 18.7414L39.3219 19.5034L39.9064 19.265L39.5956 18.503ZM43.7423 17.671C42.2865 17.716 40.8942 18.006 39.604 18.4997L39.898 19.2683C41.1039 18.8069 42.4054 18.5356 43.7677 18.4935L43.7423 17.671ZM48.0206 18.2735C46.6746 17.8399 45.2341 17.6249 43.7423 17.671L43.7677 18.4935C45.1635 18.4504 46.5102 18.6515 47.7684 19.0567L48.0206 18.2735ZM48.0546 18.2823L48.0028 18.2681L47.7863 19.062L47.8381 19.0762L48.0546 18.2823ZM48.6814 18.5061L48.0854 18.292L47.8072 19.0664L48.4032 19.2805L48.6814 18.5061ZM53.119 21.3937C51.8697 20.1446 50.3637 19.1545 48.6903 18.5094L48.3943 19.2772C49.9587 19.8803 51.3678 20.8064 52.5372 21.9756L53.119 21.3937ZM53.1628 21.4314L53.1009 21.3766L52.5553 21.9926L52.6172 22.0475L53.1628 21.4314ZM53.2548 21.532L53.2007 21.4698L52.5792 22.0091L52.6333 22.0714L53.2548 21.532ZM56.8381 29.9814C56.7361 26.6816 55.3778 23.7108 53.2388 21.5146L52.6493 22.0888C54.6509 24.1439 55.9202 26.9213 56.0156 30.0068L56.8381 29.9814ZM56.7976 31.4608C56.8389 30.9749 56.8536 30.4813 56.8381 29.9814L56.0156 30.0068C56.0301 30.4738 56.0163 30.9357 55.9776 31.3911L56.7976 31.4608ZM56.7329 32.0531L56.7966 31.4707L55.9786 31.3813L55.9149 31.9637L56.7329 32.0531ZM55.3182 36.406C56.0363 35.0794 56.5248 33.6133 56.7318 32.0628L55.9161 31.954C55.7227 33.4032 55.2661 34.7737 54.5945 36.0143L55.3182 36.406ZM49.856 36.1684L47.5132 32.7959L46.8374 33.2654L49.1802 36.6378L49.856 36.1684ZM53.8583 35.027L49.4297 36.0013L49.6065 36.8049L54.0351 35.8306L53.8583 35.027ZM54.6952 31.5783C54.5474 32.882 54.1618 34.1178 53.5813 35.2397L54.3122 35.6179C54.9377 34.4088 55.3535 33.0765 55.5128 31.671L54.6952 31.5783ZM51.5027 28.7201L54.8182 31.9207L55.3897 31.3287L52.0742 28.1281L51.5027 28.7201ZM48.3538 29.7325L51.891 28.8226L51.686 28.0257L48.1488 28.9355L48.3538 29.7325ZM47.5703 33.1456L48.6463 29.449L47.8562 29.219L46.7802 32.9157L47.5703 33.1456ZM39.4875 36.9359L41.6166 33.4269L40.9131 33L38.784 36.509L39.4875 36.9359ZM34.576 36.4094L39.0707 37.1287L39.2008 36.3162L34.706 35.5969L34.576 36.4094ZM32.8493 32.3145C33.0902 33.7197 33.5863 35.0356 34.2875 36.2136L34.9946 35.7927C34.344 34.6997 33.8838 33.4791 33.6604 32.1755L32.8493 32.3145ZM36.0712 28.6193L32.9539 31.9645L33.5559 32.5255L36.6732 29.1803L36.0712 28.6193ZM40.0402 29.1863L36.4499 28.4958L36.2945 29.3039L39.8848 29.9944L40.0402 29.1863ZM41.6521 33.0743L40.3497 29.4511L39.5753 29.7295L40.8777 33.3526L41.6521 33.0743ZM34.3906 24.5725L35.0671 28.099L35.8753 27.9439L35.1987 24.4175L34.3906 24.5725ZM33.5089 30.5613C33.4708 28.4188 34.0731 26.408 35.1425 24.7147L34.4468 24.2753C33.2944 26.1 32.6451 28.2679 32.6862 30.576L33.5089 30.5613ZM35.1702 27.741L32.7965 30.2882L33.3985 30.8492L35.7722 28.302L35.1702 27.741ZM40.7921 29.3967L42.0081 32.7796L42.7825 32.5013L41.5665 29.1183L40.7921 29.3967ZM43.7688 26.7307L40.9273 28.9322L41.4313 29.5827L44.2728 27.3811L43.7688 26.7307ZM47.2243 28.7378L44.2522 26.7157L43.7894 27.3961L46.7614 29.4182L47.2243 28.7378ZM46.3832 32.6444L47.3879 29.193L46.5978 28.963L45.5931 32.4144L46.3832 32.6444ZM42.408 33.0517L46.0009 32.9406L45.9755 32.1181L42.3826 32.2292L42.408 33.0517ZM55.4514 29.6397L52.9104 27.1867L52.3388 27.7788L54.8799 30.2318L55.4514 29.6397ZM52.6161 23.9744C53.8817 25.6468 54.6654 27.7061 54.7545 29.952L55.5768 29.9194C55.4808 27.4998 54.6359 25.2797 53.2723 23.4779L52.6161 23.9744ZM53.0346 27.5176L53.3542 23.761L52.5343 23.6913L52.2146 27.4479L53.0346 27.5176ZM51.7938 27.2645L52.2023 22.4643L51.3824 22.3945L50.9739 27.1947L51.7938 27.2645ZM47.9689 28.5327L51.4863 27.6281L51.2814 26.8311L47.7639 27.7357L47.9689 28.5327ZM44.4073 26.2786L47.635 28.4744L48.0978 27.794L44.8702 25.5982L44.4073 26.2786ZM44.1223 22.5481L44.2275 25.9511L45.05 25.9257L44.9448 22.5227L44.1223 22.5481ZM47.6197 19.6579L44.2836 22.2085L44.7834 22.8622L48.1195 20.3116L47.6197 19.6579ZM52.0778 22.1331C50.9246 21.0221 49.5414 20.1506 48.0092 19.5977L47.7299 20.3717C49.1511 20.8846 50.4354 21.6935 51.5069 22.7257L52.0778 22.1331ZM46.1051 19.2323L43.5835 21.1603L44.0834 21.814L46.605 19.886L46.1051 19.2323ZM43.8063 19.7507C44.6522 19.7246 45.4778 19.7989 46.2722 19.9622L46.4379 19.1561C45.5814 18.9801 44.6917 18.9001 43.7809 18.9282L43.8063 19.7507ZM41.0247 20.2105C41.9075 19.9401 42.8397 19.7806 43.8063 19.7507L43.7809 18.9282C42.7399 18.9604 41.7352 19.1322 40.7837 19.4238L41.0247 20.2105ZM44.0372 21.1297L41.108 19.4597L40.7004 20.1746L43.6297 21.8446L44.0372 21.1297ZM43.4579 22.247L39.5994 20.0471L39.1919 20.762L43.0503 22.9619L43.4579 22.247ZM43.7697 25.9653L43.6654 22.5917L42.8429 22.6171L42.9472 25.9907L43.7697 25.9653ZM40.5248 28.6942L43.6104 26.3032L43.1064 25.6528L40.0208 28.0438L40.5248 28.6942ZM36.609 28.0837L40.1951 28.7731L40.3505 27.965L36.7643 27.2756L36.609 28.0837ZM35.4095 23.206L36.2826 27.7572L37.0907 27.6021L36.2176 23.0509L35.4095 23.206ZM39.2185 20.0332C37.7905 20.7145 36.5284 21.6817 35.5033 22.8582L36.1237 23.3987C37.0759 22.3059 38.2479 21.4081 39.5728 20.7759L39.2185 20.0332ZM35.5934 37.846L39.0053 38.3923L39.1354 37.5798L35.7235 37.0334L35.5934 37.846ZM36.2895 37.5368L35.9683 37.1691L35.3485 37.7104L35.6697 38.0781L36.2895 37.5368ZM41.0116 40.5337C39.1794 39.9687 37.5512 38.9189 36.2835 37.53L35.6757 38.0848C37.0404 39.5798 38.7938 40.7109 40.7691 41.32L41.0116 40.5337ZM38.7205 38.2026L40.5405 41.1433L41.2402 40.7103L39.4202 37.7695L38.7205 38.2026ZM39.8416 37.6237L42.2556 41.5244L42.9553 41.0913L40.5413 37.1907L39.8416 37.6237ZM41.9669 33.6878L39.8397 37.1938L40.5432 37.6206L42.6704 34.1147L41.9669 33.6878ZM46.1532 33.371L42.306 33.49L42.3314 34.3125L46.1786 34.1935L46.1532 33.371ZM48.8436 36.9154L46.5038 33.5475L45.828 34.017L48.1678 37.3849L48.8436 36.9154ZM46.7003 41.3867L48.8683 37.3446L48.1431 36.9557L45.9752 40.9977L46.7003 41.3867ZM44.489 41.8198C45.1486 41.7994 45.7935 41.7226 46.4196 41.5954L46.2558 40.789C45.6744 40.9071 45.0758 40.9784 44.4635 40.9973L44.489 41.8198ZM43.0259 41.7718C43.506 41.8184 43.9943 41.8353 44.4891 41.8198L44.4634 40.9973C44.0042 41.0117 43.551 40.9961 43.1054 40.9528L43.0259 41.7718ZM42.5571 41.7164L43.0173 41.7709L43.114 40.9537L42.6538 40.8993L42.5571 41.7164ZM34.2664 41.2316C34.3488 41.1441 34.4867 41.1398 34.5743 41.2221L35.1376 40.6222C34.7189 40.2291 34.0607 40.2494 33.6672 40.6677L34.2664 41.2316ZM26.0555 49.9668L34.2666 41.2314L33.667 40.6678L25.4559 49.4032L26.0555 49.9668ZM26.0047 50.0364L26.0822 49.9353L25.4292 49.4346L25.3516 49.5358L26.0047 50.0364ZM26.065 50.2743C25.9887 50.2026 25.9753 50.0881 26.0284 50.0021L25.328 49.5701C25.0738 49.9822 25.1347 50.5292 25.5014 50.8739L26.065 50.2743ZM26.2206 50.333C26.1644 50.3348 26.1087 50.3153 26.0647 50.274L25.5017 50.8741C25.7108 51.0703 25.9805 51.1637 26.246 51.1555L26.2206 50.333ZM26.3723 50.2646C26.331 50.3085 26.2767 50.3313 26.2206 50.333L26.246 51.1555C26.5115 51.1473 26.7752 51.0374 26.9718 50.8282L26.3723 50.2646ZM34.5836 41.5295L26.3723 50.2645L26.9718 50.8282L35.1832 42.0931L34.5836 41.5295ZM34.6342 41.46L34.5568 41.5611L35.2101 42.0614L35.2875 41.9603L34.6342 41.46ZM34.574 41.2218C34.6502 41.2935 34.6636 41.4082 34.6106 41.4943L35.3111 41.926C35.565 41.514 35.5042 40.9672 35.1379 40.6225L34.574 41.2218ZM35.9735 48.4815C35.7736 48.2936 35.5036 48.1911 35.2289 48.1996L35.2543 49.0221C35.3105 49.0204 35.3688 49.0424 35.4099 49.0811L35.9735 48.4815ZM36.3009 49.2078C36.2924 48.9331 36.174 48.6696 35.9732 48.4812L35.4102 49.0814C35.4509 49.1195 35.4766 49.176 35.4784 49.2332L36.3009 49.2078ZM36.019 49.952C36.2067 49.7523 36.3094 49.4826 36.3009 49.2078L35.4784 49.2332C35.4801 49.289 35.4582 49.3471 35.4194 49.3884L36.019 49.952ZM35.2932 50.2798C35.5676 50.2713 35.8314 50.1527 36.0199 49.951L35.4185 49.3893C35.3804 49.4301 35.3243 49.4556 35.2677 49.4573L35.2932 50.2798ZM34.5478 49.9965C34.7483 50.1862 35.0189 50.2883 35.2932 50.2798L35.2677 49.4573C35.2115 49.4591 35.1539 49.4371 35.1133 49.3987L34.5478 49.9965ZM34.2212 49.2721C34.2297 49.5472 34.349 49.8097 34.5487 49.9974L35.1124 49.3979C35.0706 49.3586 35.0454 49.3021 35.0437 49.2467L34.2212 49.2721ZM34.5033 48.527C34.3156 48.7266 34.2127 48.9966 34.2212 49.2721L35.0437 49.2467C35.0419 49.1902 35.064 49.1319 35.1029 49.0906L34.5033 48.527ZM35.2289 48.1996C34.9543 48.2081 34.6911 48.3271 34.5033 48.527L35.1029 49.0906C35.1416 49.0494 35.1984 49.0238 35.2543 49.0221L35.2289 48.1996ZM52.6878 36.6762C51.481 38.3103 49.8169 39.5903 47.8804 40.3213L48.171 41.0911C50.2587 40.3031 52.0507 38.9241 53.3497 37.1651L52.6878 36.6762ZM49.748 38.0617L53.1071 37.3225L52.9303 36.5188L49.5712 37.258L49.748 38.0617ZM48.3883 40.9007L50.0222 37.8543L49.297 37.4654L47.6631 40.5117L48.3883 40.9007Z" fill="#313132"/>
</g>
<defs>
<filter id="filter0_d_1976_14631" x="1.5979" y="2.59796" width="76" height="76" filterUnits="userSpaceOnUse" color-interpolation-filters="sRGB">
<feFlood flood-opacity="0" result="BackgroundImageFix"/>
<feColorMatrix in="SourceAlpha" type="matrix" values="0 0 0 0 0 0 0 0 0 0 0 0 0 0 0 0 0 0 127 0" result="hardAlpha"/>
<feOffset dy="5"/>
<feGaussianBlur stdDeviation="5"/>
<feColorMatrix type="matrix" values="0 0 0 0 0 0 0 0 0 0 0 0 0 0 0 0 0 0 0.2 0"/>
<feBlend mode="normal" in2="BackgroundImageFix" result="effect1_dropShadow_1976_14631"/>
<feBlend mode="normal" in="SourceGraphic" in2="effect1_dropShadow_1976_14631" result="shape"/>
</filter>
<filter id="filter1_d_1976_14631" x="7.5979" y="5.59796" width="64" height="64" filterUnits="userSpaceOnUse" color-interpolation-filters="sRGB">
<feFlood flood-opacity="0" result="BackgroundImageFix"/>
<feColorMatrix in="SourceAlpha" type="matrix" values="0 0 0 0 0 0 0 0 0 0 0 0 0 0 0 0 0 0 127 0" result="hardAlpha"/>
<feOffset dy="2"/>
<feGaussianBlur stdDeviation="2"/>
<feColorMatrix type="matrix" values="0 0 0 0 0 0 0 0 0 0 0 0 0 0 0 0 0 0 0.05 0"/>
<feBlend mode="normal" in2="BackgroundImageFix" result="effect1_dropShadow_1976_14631"/>
<feBlend mode="normal" in="SourceGraphic" in2="effect1_dropShadow_1976_14631" result="shape"/>
</filter>
</defs>
</svg>
