<svg width="27" height="24" viewBox="0 0 27 24" fill="none" xmlns="http://www.w3.org/2000/svg">
<path fill-rule="evenodd" clip-rule="evenodd" d="M25.8131 10.8458L21.8342 6.93966V2.42741C21.8342 1.61154 21.1608 0.950333 20.3285 0.950333C19.4981 0.950333 18.8246 1.61154 18.8246 2.42741V3.98513L15.862 1.0766C14.3973 -0.360574 11.8506 -0.358025 10.3892 1.0792L0.440471 10.8458C-0.146824 11.4235 -0.146824 12.3583 0.440471 12.9351C1.02803 13.5126 1.98205 13.5126 2.5694 12.9351L12.5172 3.16822C12.8412 2.85174 13.4124 2.85174 13.7348 3.16728L23.6842 12.9351C23.9793 13.2239 24.3639 13.3675 24.7484 13.3675C25.1338 13.3675 25.5191 13.2237 25.8132 12.9351C26.4007 12.3583 26.4007 11.4235 25.8131 10.8458Z" fill="#524685"/>
<path fill-rule="evenodd" clip-rule="evenodd" d="M13.6495 5.9721C13.3605 5.6885 12.8925 5.6885 12.6043 5.9721L3.85337 14.5604C3.71522 14.696 3.63689 14.8811 3.63689 15.0743V21.3383C3.63689 22.8082 4.85091 24 6.34813 24H10.6807V17.4129H15.5721V24H19.9048C21.402 24 22.616 22.8082 22.616 21.3384V15.0743C22.616 14.8811 22.5383 14.696 22.3995 14.5604L13.6495 5.9721Z" fill="#524685"/>
</svg>
