<svg width="26" height="26" viewBox="0 0 26 26" fill="none" xmlns="http://www.w3.org/2000/svg">
<path fill-rule="evenodd" clip-rule="evenodd" d="M24.95 10.4042L21.1042 6.65711V2.32858C21.1042 1.54592 20.4532 0.91164 19.6488 0.91164C18.8462 0.91164 18.1952 1.54592 18.1952 2.32858V3.82288L15.3317 1.03277C13.9159 -0.345893 11.4544 -0.343448 10.0418 1.03526L0.425744 10.4042C-0.141915 10.9584 -0.141915 11.8551 0.425744 12.4084C0.993658 12.9624 1.91578 12.9624 2.48349 12.4084L12.0986 3.03922C12.4119 2.73563 12.964 2.73563 13.2756 3.03832L22.8923 12.4084C23.1775 12.6855 23.5493 12.8232 23.921 12.8232C24.2934 12.8232 24.6658 12.6853 24.9501 12.4084C25.518 11.8551 25.518 10.9584 24.95 10.4042Z" fill="#8D98A3"/>
<path fill-rule="evenodd" clip-rule="evenodd" d="M13.1932 6.7061C12.9139 6.43406 12.4615 6.43406 12.183 6.7061L3.72463 14.9448C3.59109 15.0748 3.51538 15.2524 3.51538 15.4377V21.4467C3.51538 22.8568 4.68881 24 6.13597 24H10.3237V17.6811H15.0516V24H19.2393C20.6865 24 21.8599 22.8568 21.8599 21.4468V15.4377C21.8599 15.2524 21.7848 15.0748 21.6506 14.9448L13.1932 6.7061Z" stroke="#8D98A3" stroke-width="2.5" stroke-linejoin="round"/>
</svg>
