<svg width="16" height="12" viewBox="0 0 16 12" fill="none" xmlns="http://www.w3.org/2000/svg">
<path d="M14.071 2.45916C13.8632 1.97793 13.5635 1.54185 13.1888 1.17532C12.8137 0.807695 12.3716 0.51555 11.8863 0.31477C11.3831 0.105747 10.8434 -0.0012432 10.2986 1.08985e-05C9.53415 1.08985e-05 8.78834 0.209333 8.14022 0.60472C7.98517 0.699303 7.83787 0.803189 7.69832 0.916378C7.55877 0.803189 7.41147 0.699303 7.25641 0.60472C6.60829 0.209333 5.86248 1.08985e-05 5.09807 1.08985e-05C4.54763 1.08985e-05 4.01424 0.105447 3.51032 0.31477C3.02345 0.51634 2.58465 0.80629 2.20787 1.17532C1.83263 1.54143 1.53289 1.97762 1.32561 2.45916C1.11009 2.95999 1 3.49182 1 4.03916C1 4.55549 1.10544 5.09352 1.31476 5.64086C1.48997 6.09827 1.74116 6.57273 2.06212 7.05185C2.57069 7.81006 3.26999 8.60084 4.13829 9.40246C5.57718 10.7313 7.00213 11.6492 7.0626 11.6864L7.43007 11.9221C7.59288 12.026 7.8022 12.026 7.96501 11.9221L8.33249 11.6864C8.39296 11.6476 9.81635 10.7313 11.2568 9.40246C12.1251 8.60084 12.8244 7.81006 13.333 7.05185C13.6539 6.57273 13.9067 6.09827 14.0803 5.64086C14.2896 5.09352 14.3951 4.55549 14.3951 4.03916C14.3966 3.49182 14.2865 2.95999 14.071 2.45916ZM7.69832 10.6956C7.69832 10.6956 2.17841 7.15884 2.17841 4.03916C2.17841 2.45916 3.48551 1.17842 5.09807 1.17842C6.23151 1.17842 7.21455 1.81104 7.69832 2.73516C8.18208 1.81104 9.16512 1.17842 10.2986 1.17842C11.9111 1.17842 13.2182 2.45916 13.2182 4.03916C13.2182 7.15884 7.69832 10.6956 7.69832 10.6956Z" fill="#8D98A3"/>
</svg>
