<svg width="25" height="24" viewBox="0 0 25 24" fill="none" xmlns="http://www.w3.org/2000/svg">
<path d="M6.83077 1.94462L5.07077 0.184616C2.11692 2.43692 0.172308 5.90769 0 9.84615H2.46154C2.54872 8.28531 2.98686 6.76423 3.74335 5.39617C4.49983 4.02811 5.55516 2.84831 6.83077 1.94462ZM22.08 9.84615H24.5415C24.3569 5.90769 22.4123 2.43692 19.4708 0.184616L17.7231 1.94462C18.9932 2.85276 20.0438 4.03386 20.7978 5.40119C21.5517 6.76851 21.9899 8.28734 22.08 9.84615ZM19.6554 10.4615C19.6554 6.68308 17.6369 3.52 14.1169 2.68308V1.84615C14.1169 0.824615 13.2923 0 12.2708 0C11.2492 0 10.4246 0.824615 10.4246 1.84615V2.68308C6.89231 3.52 4.88615 6.67077 4.88615 10.4615V16.6154L2.42462 19.0769V20.3077H22.1169V19.0769L19.6554 16.6154V10.4615ZM12.2708 24C12.4431 24 12.6031 23.9877 12.7631 23.9508C13.5631 23.7785 14.2154 23.2369 14.5354 22.4985C14.6585 22.2031 14.72 21.8831 14.72 21.5385H9.79692C9.80923 22.8923 10.9046 24 12.2708 24Z" fill="#3F3177"/>
</svg>
