<svg width="24" height="24" viewBox="0 0 24 24" fill="none" xmlns="http://www.w3.org/2000/svg">
<path d="M21.4328 18.8568C20.8431 18.2919 20.2692 17.7109 19.7117 17.1143C19.2433 16.6383 18.9613 16.2921 18.9613 16.2921L15.4359 14.6088C16.8473 13.008 17.6263 10.9474 17.6267 8.81335C17.6267 3.95467 13.6733 0 8.81335 0C3.95342 0 0 3.95467 0 8.81335C0 13.672 3.95342 17.6267 8.81335 17.6267C11.033 17.6267 13.0563 16.7957 14.6088 15.4372L16.2921 18.9625C16.2921 18.9625 16.6383 19.2446 17.1143 19.7129C17.6015 20.17 18.2424 20.7882 18.8568 21.4341L20.5666 23.1867L21.327 24L23.9975 21.3296L23.1841 20.5691C22.707 20.1007 22.0699 19.4788 21.4328 18.8568ZM8.81335 15.1086C5.34215 15.1086 2.5181 12.2845 2.5181 8.81335C2.5181 5.34215 5.34215 2.5181 8.81335 2.5181C12.2845 2.5181 15.1086 5.34215 15.1086 8.81335C15.1086 12.2845 12.2845 15.1086 8.81335 15.1086Z" fill="#F7F8FC"/>
</svg>
