<svg width="32" height="32" viewBox="0 0 32 32" fill="none" xmlns="http://www.w3.org/2000/svg">
<g clip-path="url(#clip0_2147_31431)">
<path fill-rule="evenodd" clip-rule="evenodd" d="M18.7134 3.74534C19.2067 3.39068 19.9001 3.22534 20.5814 3.47468C22.0299 4.00532 23.3753 4.78355 24.5574 5.77468C25.1134 6.24134 25.3174 6.92268 25.2561 7.52534C25.1561 8.52934 25.3321 9.49868 25.8161 10.3333C26.2427 11.076 26.8854 11.6627 27.6694 12.076L27.9694 12.2227C28.5214 12.472 29.0121 12.9907 29.1361 13.7067C29.3994 15.2242 29.3994 16.7758 29.1361 18.2933C29.0254 18.9387 28.6161 19.4227 28.1321 19.6947L27.9694 19.7787C27.0494 20.192 26.2974 20.832 25.8147 21.6667C25.3321 22.5027 25.1561 23.4707 25.2561 24.4747C25.3161 25.0773 25.1134 25.76 24.5574 26.2253C23.3753 27.2165 22.0299 27.9947 20.5814 28.5253C20.2718 28.6361 19.9398 28.6693 19.6144 28.6221C19.289 28.5749 18.9801 28.4488 18.7147 28.2547C17.8934 27.6667 16.9641 27.3333 16.0001 27.3333C15.0361 27.3333 14.1067 27.6653 13.2867 28.2547C13.0212 28.449 12.7121 28.5753 12.3864 28.6225C12.0608 28.6697 11.7285 28.6363 11.4187 28.5253C9.9702 27.9947 8.62487 27.2165 7.44273 26.2253C7.19236 26.0126 6.99781 25.7419 6.87603 25.4368C6.75426 25.1316 6.70895 24.8013 6.74407 24.4747C6.84407 23.4707 6.66673 22.5013 6.18407 21.6667C5.74446 20.9215 5.10158 20.317 4.33073 19.924L4.03073 19.7773C3.72986 19.6441 3.46622 19.4391 3.26284 19.1804C3.05946 18.9217 2.92255 18.6172 2.86407 18.2933C2.60065 16.7758 2.60065 15.2242 2.86407 13.7067C2.97473 13.0613 3.38407 12.5773 3.86807 12.3053L4.03073 12.2227C4.95073 11.808 5.70273 11.1693 6.1854 10.3333C6.66673 9.49868 6.84407 8.52934 6.74407 7.52534C6.70895 7.19869 6.75426 6.8684 6.87603 6.56326C6.99781 6.25812 7.19236 5.9874 7.44273 5.77468C8.62488 4.78355 9.97021 4.00532 11.4187 3.47468C11.7283 3.36405 12.0603 3.33089 12.3857 3.37806C12.7111 3.42524 13.02 3.55134 13.2854 3.74534C14.1054 4.33468 15.0347 4.66668 16.0001 4.66668C16.9654 4.66668 17.8934 4.33468 18.7134 3.74534ZM19.9894 6.10401C18.8347 6.86401 17.4734 7.33334 16.0001 7.33334C14.5267 7.33334 13.1654 6.86268 12.0107 6.10401C11.0825 6.47868 10.2117 6.9823 9.42407 7.60001C9.50407 8.97734 9.23073 10.3907 8.49473 11.6667C7.7574 12.9413 6.67073 13.884 5.4374 14.504C5.29845 15.4956 5.29845 16.5017 5.4374 17.4933C6.67073 18.1133 7.7574 19.056 8.49473 20.3333C9.23073 21.6067 9.50407 23.02 9.42407 24.3973C10.2116 25.0155 11.0824 25.5196 12.0107 25.8947C13.1654 25.1347 14.5267 24.6653 16.0001 24.6653C17.4734 24.6653 18.8347 25.136 19.9894 25.8947C20.9176 25.52 21.7884 25.0163 22.5761 24.3987C22.4961 23.02 22.7694 21.6067 23.5054 20.332C24.2414 19.056 25.3294 18.1133 26.5627 17.492C26.7016 16.5013 26.7016 15.4961 26.5627 14.5053C25.3294 13.884 24.2427 12.9413 23.5054 11.6653C22.7694 10.3907 22.4961 8.97734 22.5761 7.59868C21.7884 6.98096 20.9176 6.47734 19.9894 6.10268V6.10401ZM16.0001 10.6667C17.4146 10.6667 18.7711 11.2286 19.7713 12.2288C20.7715 13.229 21.3334 14.5855 21.3334 16C21.3334 17.4145 20.7715 18.7711 19.7713 19.7712C18.7711 20.7714 17.4146 21.3333 16.0001 21.3333C14.5856 21.3333 13.229 20.7714 12.2288 19.7712C11.2286 18.7711 10.6667 17.4145 10.6667 16C10.6667 14.5855 11.2286 13.229 12.2288 12.2288C13.229 11.2286 14.5856 10.6667 16.0001 10.6667ZM16.0001 13.3333C15.2928 13.3333 14.6145 13.6143 14.1145 14.1144C13.6144 14.6145 13.3334 15.2928 13.3334 16C13.3334 16.7073 13.6144 17.3855 14.1145 17.8856C14.6145 18.3857 15.2928 18.6667 16.0001 18.6667C16.7073 18.6667 17.3856 18.3857 17.8857 17.8856C18.3858 17.3855 18.6667 16.7073 18.6667 16C18.6667 15.2928 18.3858 14.6145 17.8857 14.1144C17.3856 13.6143 16.7073 13.3333 16.0001 13.3333Z" fill="white"/>
</g>
<defs>
<clipPath id="clip0_2147_31431">
<rect width="32" height="32" fill="white"/>
</clipPath>
</defs>
</svg>
