<svg width="16" height="16" viewBox="0 0 16 16" fill="none" xmlns="http://www.w3.org/2000/svg">
<path d="M4.20839 9.75C4.71886 9.7471 5.20984 9.55363 5.58506 9.2075L9.23673 11.2958C9.19021 11.457 9.16665 11.6239 9.16673 11.7917C9.16298 12.2651 9.32246 12.7253 9.61833 13.0949C9.9142 13.4644 10.3284 13.7208 10.7911 13.8207C11.2539 13.9207 11.7369 13.8581 12.1589 13.6436C12.581 13.4291 12.9162 13.0757 13.1081 12.6429C13.3001 12.2102 13.3371 11.7245 13.2128 11.2677C13.0886 10.8108 12.8108 10.4108 12.4261 10.1348C12.0414 9.85885 11.5734 9.72387 11.1009 9.7526C10.6284 9.78132 10.1801 9.97199 9.83173 10.2925L6.18006 8.20417C6.22413 8.06042 6.24769 7.91117 6.25006 7.76083L9.83756 5.7075C10.1841 6.02066 10.6278 6.20513 11.0942 6.22999C11.5606 6.25485 12.0214 6.11858 12.3992 5.84403C12.7771 5.56948 13.049 5.17336 13.1695 4.72209C13.29 4.27082 13.2516 3.79185 13.0608 3.36552C12.87 2.93919 12.5385 2.59142 12.1217 2.38053C11.705 2.16965 11.2284 2.10848 10.7719 2.20728C10.3154 2.30608 9.90673 2.55885 9.61448 2.92319C9.32222 3.28752 9.16414 3.74127 9.16673 4.20833C9.1687 4.37593 9.19223 4.54258 9.23673 4.70417L5.91756 6.6C5.72524 6.30248 5.45881 6.06011 5.14446 5.89674C4.83011 5.73336 4.47865 5.65459 4.12464 5.66818C3.77063 5.68176 3.42625 5.78723 3.12534 5.97421C2.82443 6.16119 2.57735 6.42326 2.4084 6.73465C2.23944 7.04603 2.15442 7.39603 2.16168 7.75022C2.16895 8.10442 2.26826 8.45063 2.44985 8.75483C2.63143 9.05902 2.88905 9.31073 3.19738 9.48522C3.5057 9.6597 3.85412 9.75095 4.20839 9.75ZM11.2084 10.9167C11.3815 10.9167 11.5506 10.968 11.6945 11.0641C11.8384 11.1603 11.9506 11.2969 12.0168 11.4568C12.083 11.6167 12.1003 11.7926 12.0666 11.9624C12.0328 12.1321 11.9495 12.288 11.8271 12.4104C11.7047 12.5328 11.5488 12.6161 11.3791 12.6499C11.2094 12.6836 11.0334 12.6663 10.8735 12.6001C10.7137 12.5338 10.577 12.4217 10.4809 12.2778C10.3847 12.1339 10.3334 11.9647 10.3334 11.7917C10.3334 11.5596 10.4256 11.337 10.5897 11.1729C10.7538 11.0089 10.9763 10.9167 11.2084 10.9167ZM11.2084 3.33333C11.3815 3.33333 11.5506 3.38465 11.6945 3.4808C11.8384 3.57694 11.9506 3.7136 12.0168 3.87349C12.083 4.03337 12.1003 4.20931 12.0666 4.37904C12.0328 4.54877 11.9495 4.70468 11.8271 4.82705C11.7047 4.94942 11.5488 5.03276 11.3791 5.06652C11.2094 5.10028 11.0334 5.08296 10.8735 5.01673C10.7137 4.9505 10.577 4.83835 10.4809 4.69446C10.3847 4.55057 10.3334 4.38139 10.3334 4.20833C10.3334 3.97627 10.4256 3.75371 10.5897 3.58962C10.7538 3.42552 10.9763 3.33333 11.2084 3.33333ZM4.20839 6.83333C4.38145 6.83333 4.55062 6.88465 4.69452 6.9808C4.83841 7.07694 4.95056 7.2136 5.01679 7.37349C5.08301 7.53337 5.10034 7.7093 5.06658 7.87904C5.03282 8.04877 4.94948 8.20468 4.82711 8.32705C4.70474 8.44942 4.54883 8.53276 4.3791 8.56652C4.20936 8.60028 4.03343 8.58296 3.87354 8.51673C3.71366 8.4505 3.577 8.33835 3.48086 8.19446C3.38471 8.05056 3.33339 7.88139 3.33339 7.70833C3.33339 7.47627 3.42558 7.25371 3.58967 7.08962C3.75377 6.92552 3.97633 6.83333 4.20839 6.83333Z" fill="#8D98A3"/>
</svg>
